<svg width="40" height="40" viewBox="0 0 40 40" fill="none" xmlns="http://www.w3.org/2000/svg">
<path fill-rule="evenodd" clip-rule="evenodd" d="M33.232 0.152782C32.6231 0.313137 32.341 0.441342 31.7986 0.803949C31.4508 1.03646 13.6294 18.8564 13.3271 19.2739C13.1626 19.5011 10.7557 28.0912 10.7563 28.4493C10.7569 28.8916 11.2663 29.3947 11.7136 29.3947C12.0547 29.3947 20.6153 26.9666 20.8317 26.8084C20.9477 26.7237 25.0787 22.5929 30.0117 17.629C36.5618 11.0377 39.0674 8.46727 39.3021 8.09829C39.8807 7.18851 40.1231 5.97437 39.94 4.90283C39.8868 4.59163 39.7106 4.07299 39.5281 3.69073C39.2418 3.09105 39.096 2.90892 38.1048 1.91291C37.1121 0.915333 36.9334 0.770935 36.3356 0.483789C35.2794 -0.0236871 34.2989 -0.128232 33.232 0.152782ZM35.5023 2.28802C35.9294 2.50465 37.5165 4.10396 37.7524 4.55539C37.9087 4.85456 37.9374 5.02427 37.9382 5.65587C37.9395 6.60385 37.7958 6.90978 36.9084 7.84793L36.268 8.52496L33.8964 6.1418L31.5248 3.75865L32.2139 3.10056C32.5929 2.73866 33.0587 2.36686 33.2489 2.27426C33.9263 1.94475 34.8366 1.95033 35.5023 2.28802ZM3.7157 4.05295C2.07852 4.49463 0.821443 5.66994 0.239369 7.30312L0 7.97472V21.9272C0 35.2373 0.00657093 35.9012 0.143465 36.3469C0.431882 37.286 0.746738 37.8107 1.44623 38.518C1.93772 39.015 2.26055 39.2658 2.6789 39.4755C3.82122 40.0482 2.69877 40.0133 19.2043 39.989L34.028 39.9671L34.5554 39.7609C36.0923 39.1601 37.1777 38.0463 37.6867 36.5478C37.8578 36.0441 37.8606 35.9648 37.8849 30.9668C37.9071 26.4129 37.8967 25.8721 37.7828 25.6554C37.6153 25.3368 37.2853 25.15 36.8895 25.15C36.6326 25.15 36.5094 25.204 36.2758 25.419L35.9836 25.6881L35.9445 30.6659C35.9055 35.6253 35.9047 35.6455 35.7266 36.0883C35.4034 36.8914 34.8004 37.4976 34.0015 37.8221L33.5586 38.002L19.2091 38.0229C9.73771 38.0366 4.71338 38.0166 4.42958 37.9639C3.4872 37.7888 2.65137 37.1445 2.25868 36.2901L2.03386 35.801V21.9665V8.13194L2.26079 7.63814C2.54897 7.01094 3.21568 6.37172 3.84985 6.11453L4.30239 5.93098L9.23058 5.89168C14.7353 5.84782 14.4275 5.88162 14.7069 5.28988C14.887 4.90856 14.8058 4.54266 14.4653 4.20049L14.1926 3.92655L9.16933 3.93174C4.99789 3.93598 4.07295 3.95657 3.7157 4.05295ZM32.5028 7.58193L34.8097 9.90103L27.5156 17.2304L20.2217 24.5599L17.9138 22.2418C16.6445 20.9669 15.6059 19.8882 15.6059 19.8448C15.6059 19.7414 30.0142 5.26284 30.117 5.26284C30.1604 5.26284 31.234 6.3064 32.5028 7.58193ZM18.2465 25.5364C17.9635 25.6315 13.2205 26.9452 13.2074 26.9321C13.1989 26.9236 13.4365 26.0327 13.7353 24.9525C14.0341 23.8722 14.3532 22.7105 14.4445 22.3709L14.6106 21.7535L16.4777 23.6285C17.5074 24.6626 18.3007 25.5182 18.2465 25.5364Z" fill="#155AD6"/>
</svg>
