<svg width="40" height="41" viewBox="0 0 40 41" fill="none" xmlns="http://www.w3.org/2000/svg">
<g clip-path="url(#clip0_159_3057)">
<path d="M25.3766 8.5H14.623C10.9711 8.5 8 11.4712 8 15.1231V25.8768C8 29.5288 10.9711 32.4999 14.623 32.4999H25.3766C29.0288 32.4999 31.9999 29.5287 31.9999 25.8768V15.1231C32 11.4712 29.0288 8.5 25.3766 8.5ZM29.8706 25.8768C29.8706 28.3547 27.8547 30.3705 25.3768 30.3705H14.623C12.1452 30.3706 10.1294 28.3547 10.1294 25.8768V15.1231C10.1294 12.6453 12.1452 10.6294 14.623 10.6294H25.3766C27.8545 10.6294 29.8705 12.6453 29.8705 15.1231V25.8768H29.8706Z" fill="#FCFCFD"/>
<path d="M20 14.3164C16.59 14.3164 13.8158 17.0906 13.8158 20.5006C13.8158 23.9104 16.59 26.6844 20 26.6844C23.4099 26.6844 26.1841 23.9104 26.1841 20.5006C26.1841 17.0906 23.4099 14.3164 20 14.3164ZM20 24.5549C17.7642 24.5549 15.9452 22.7361 15.9452 20.5004C15.9452 18.2646 17.7641 16.4456 20 16.4456C22.2358 16.4456 24.0547 18.2646 24.0547 20.5004C24.0547 22.7361 22.2357 24.5549 20 24.5549Z" fill="#FCFCFD"/>
<path d="M26.4435 12.5107C26.0332 12.5107 25.6302 12.6768 25.3405 12.9678C25.0493 13.2574 24.882 13.6606 24.882 14.0723C24.882 14.4827 25.0495 14.8857 25.3405 15.1767C25.6301 15.4663 26.0332 15.6338 26.4435 15.6338C26.8552 15.6338 27.2569 15.4663 27.5479 15.1767C27.8389 14.8857 28.005 14.4826 28.005 14.0723C28.005 13.6606 27.8389 13.2574 27.5479 12.9678C27.2583 12.6768 26.8552 12.5107 26.4435 12.5107Z" fill="#FCFCFD"/>
</g>
<defs>
<clipPath id="clip0_159_3057">
<rect width="40" height="40" fill="white" transform="translate(0 0.5)"/>
</clipPath>
</defs>
</svg>
