<svg width="95" height="94" viewBox="0 0 95 94" fill="none" xmlns="http://www.w3.org/2000/svg">
<path d="M12.25 50.9167C12.25 46.5904 15.7571 43.0833 20.0833 43.0833H27.9167C32.2429 43.0833 35.75 46.5904 35.75 50.9167V74.4167C35.75 78.7429 32.2429 82.25 27.9167 82.25H20.0833C15.7571 82.25 12.25 78.7429 12.25 74.4167V50.9167Z" fill="black"/>
<path d="M35.75 35.25C35.75 30.9238 39.2571 27.4167 43.5833 27.4167H51.4167C55.7429 27.4167 59.25 30.9238 59.25 35.25V74.4167C59.25 78.7429 55.7429 82.25 51.4167 82.25H43.5833C39.2571 82.25 35.75 78.7429 35.75 74.4167V35.25Z" fill="black"/>
<path d="M59.25 19.5833C59.25 15.2571 62.7571 11.75 67.0833 11.75H74.9167C79.2429 11.75 82.75 15.2571 82.75 19.5833V74.4167C82.75 78.7429 79.2429 82.25 74.9167 82.25H67.0833C62.7571 82.25 59.25 78.7429 59.25 74.4167V19.5833Z" fill="black"/>
<path d="M35.75 74.4167V50.9167C35.75 46.5904 32.2429 43.0833 27.9167 43.0833H20.0833C15.7571 43.0833 12.25 46.5904 12.25 50.9167V74.4167C12.25 78.7429 15.7571 82.25 20.0833 82.25H27.9167C32.2429 82.25 35.75 78.7429 35.75 74.4167ZM35.75 74.4167V35.25C35.75 30.9238 39.2571 27.4167 43.5833 27.4167H51.4167C55.7429 27.4167 59.25 30.9238 59.25 35.25V74.4167M35.75 74.4167C35.75 78.7429 39.2571 82.25 43.5833 82.25H51.4167C55.7429 82.25 59.25 78.7429 59.25 74.4167M59.25 74.4167V19.5833C59.25 15.2571 62.7571 11.75 67.0833 11.75H74.9167C79.2429 11.75 82.75 15.2571 82.75 19.5833V74.4167C82.75 78.7429 79.2429 82.25 74.9167 82.25H67.0833C62.7571 82.25 59.25 78.7429 59.25 74.4167Z" stroke="#848586" stroke-width="2" stroke-linecap="round" stroke-linejoin="round"/>
</svg>
