<svg width="25" height="17" viewBox="0 0 25 17" fill="none" xmlns="http://www.w3.org/2000/svg">
<path d="M23.434 7.08301H1.30571C0.584585 7.08301 0 7.68555 0 8.42881V8.57048C0 9.31375 0.584585 9.91629 1.30571 9.91629H23.434C24.1551 9.91629 24.7397 9.31375 24.7397 8.57048V8.42881C24.7397 7.68555 24.1551 7.08301 23.434 7.08301Z" fill="#F2F4F7"/>
<path d="M23.434 14.167H1.30571C0.584585 14.167 0 14.7695 0 15.5128V15.6545C0 16.3977 0.584585 17.0003 1.30571 17.0003H23.434C24.1551 17.0003 24.7397 16.3977 24.7397 15.6545V15.5128C24.7397 14.7695 24.1551 14.167 23.434 14.167Z" fill="#F2F4F7"/>
<path d="M23.434 0H1.30571C0.584585 0 0 0.602538 0 1.34581V1.48747C0 2.23074 0.584585 2.83328 1.30571 2.83328H23.434C24.1551 2.83328 24.7397 2.23074 24.7397 1.48747V1.34581C24.7397 0.602538 24.1551 0 23.434 0Z" fill="#F2F4F7"/>
</svg>
