<svg width="40" height="41" viewBox="0 0 40 41" fill="none" xmlns="http://www.w3.org/2000/svg">
<g clip-path="url(#clip0_159_3066)">
<path d="M32 13.0585C31.1075 13.45 30.1565 13.7095 29.165 13.8355C30.185 13.2265 30.9635 12.2695 31.3295 11.116C30.3785 11.683 29.3285 12.0835 28.2095 12.307C27.3065 11.3455 26.0195 10.75 24.6155 10.75C21.8915 10.75 19.6985 12.961 19.6985 15.6715C19.6985 16.0615 19.7315 16.4365 19.8125 16.7935C15.722 16.594 12.1025 14.6335 9.671 11.647C9.2465 12.3835 8.9975 13.2265 8.9975 14.134C8.9975 15.838 9.875 17.3485 11.183 18.223C10.3925 18.208 9.617 17.9785 8.96 17.617C8.96 17.632 8.96 17.6515 8.96 17.671C8.96 20.062 10.6655 22.048 12.902 22.5055C12.5015 22.615 12.065 22.6675 11.612 22.6675C11.297 22.6675 10.979 22.6495 10.6805 22.5835C11.318 24.532 13.127 25.9645 15.278 26.011C13.604 27.3205 11.4785 28.1095 9.1775 28.1095C8.774 28.1095 8.387 28.0915 8 28.042C10.1795 29.4475 12.7625 30.25 15.548 30.25C24.602 30.25 29.552 22.75 29.552 16.249C29.552 16.0315 29.5445 15.8215 29.534 15.613C30.5105 14.92 31.331 14.0545 32 13.0585Z" fill="#FCFCFD"/>
</g>
<defs>
<clipPath id="clip0_159_3066">
<rect width="40" height="40" fill="white" transform="translate(0 0.5)"/>
</clipPath>
</defs>
</svg>
