<svg width="24" height="24" viewBox="0 0 24 24" fill="none" xmlns="http://www.w3.org/2000/svg">
<path fill-rule="evenodd" clip-rule="evenodd" d="M1.29545 0.0924682C0.836682 0.227911 0.497752 0.475243 0.237116 0.86455L0 1.21882V10.3231V19.4274L0.171339 19.6921C0.38916 20.0286 0.708477 20.2929 1.11518 20.4731C1.43378 20.6143 1.462 20.6149 7.7537 20.6333L14.0723 20.6517V22.1001V23.5486L14.3049 23.764C14.5094 23.9534 14.5842 23.9788 14.9228 23.9738C15.26 23.9687 15.4837 23.8842 16.7166 23.2957L18.125 22.6234L19.5868 23.3176C21.1032 24.0377 21.3051 24.0938 21.7289 23.9124C22.2004 23.7107 22.2047 23.6824 22.2047 20.7802V18.1351L22.5037 17.8688C24.0539 16.488 24.4401 14.3903 23.4718 12.6093C22.9126 11.5806 21.9764 10.7901 20.7098 10.2768L19.8925 9.9456L19.8908 5.58221C19.8888 0.677385 19.9212 0.951502 19.2841 0.446479C18.6868 -0.0271407 19.2139 -0.00200507 9.93622 0.00122761C3.17627 0.00353666 1.5379 0.0208875 1.29545 0.0924682ZM18.1192 5.64634L18.1397 9.74405L17.5307 9.7897C16.1646 9.89216 15.0238 10.3484 13.9853 11.2077C13.2251 11.8368 12.8146 12.3797 12.4927 13.1819C12.3173 13.6191 12.289 13.8085 12.2841 14.5783C12.2799 15.2321 12.3151 15.5788 12.4164 15.882C12.6239 16.5024 13.1006 17.2476 13.6138 17.7537L14.0723 18.2058V18.6685V19.1313L7.95302 19.1144L1.83378 19.0975L1.81329 10.3891C1.80197 5.59943 1.80994 1.64336 1.83083 1.59784C1.86113 1.53206 3.53393 1.51854 9.98374 1.53187L18.0986 1.54869L18.1192 5.64634ZM4.9642 3.86203C4.71911 3.97207 4.50456 4.26908 4.50504 4.49768C4.50552 4.73782 4.80211 5.07752 5.10189 5.18116C5.32841 5.25947 6.06638 5.27616 9.30587 5.27603C13.7275 5.27596 13.6524 5.28368 13.9391 4.79825C14.1215 4.48937 14.0222 4.17652 13.6622 3.92589L13.4222 3.75878L9.30229 3.76142C5.81372 3.76367 5.14901 3.7791 4.9642 3.86203ZM5.10269 6.82013C4.58812 7.00802 4.37628 7.45221 4.61722 7.83776C4.87578 8.25154 4.8002 8.24495 9.28849 8.24495C13.893 8.24495 13.7202 8.26309 13.9543 7.75569C14.0838 7.47517 14.0833 7.44977 13.9417 7.20996C13.6517 6.71873 13.7361 6.72744 9.28849 6.73027C6.19204 6.73219 5.29038 6.75158 5.10269 6.82013ZM4.9642 9.86557C4.71911 9.97561 4.50456 10.2726 4.50504 10.5012C4.50552 10.7414 4.80211 11.0811 5.10189 11.1847C5.3198 11.26 5.85956 11.2797 7.71128 11.2796C10.3406 11.2795 10.4675 11.2599 10.759 10.8092C10.8962 10.5972 10.9026 10.5382 10.8145 10.2948C10.7461 10.1061 10.635 9.97964 10.4602 9.89137C10.2216 9.77097 10.0458 9.76298 7.6939 9.76523C5.62763 9.76721 5.14375 9.78495 4.9642 9.86557ZM19.0952 11.3513C20.1864 11.5592 21.2608 12.2813 21.7513 13.1363C22.5564 14.5398 22.2799 15.915 20.9762 16.9914C19.6733 18.0671 17.958 18.3036 16.3047 17.6355C15.2706 17.2176 14.4081 16.3299 14.1554 15.4233C14.0336 14.9865 14.0567 14.1179 14.2008 13.7162C14.5901 12.6304 15.5598 11.7969 16.861 11.4299C17.4395 11.2666 18.4623 11.2307 19.0952 11.3513ZM19.1351 12.86C18.9027 12.9396 18.7097 13.1366 18.0249 13.994L17.4113 14.762L17.0094 14.5382C16.4558 14.2299 16.0718 14.2301 15.6987 14.5388C15.4016 14.7846 15.3428 15.0779 15.5247 15.4081C15.6189 15.5792 17.0727 16.4331 17.4292 16.5267C17.6855 16.594 18.096 16.5048 18.278 16.3421C18.5551 16.0945 20.2938 13.8961 20.3454 13.7282C20.5199 13.1591 19.7903 12.6358 19.1351 12.86ZM16.5865 19.3293C17.6227 19.5766 18.9621 19.5499 19.9523 19.2621L20.3709 19.1404V20.5481V21.9558L19.3962 21.4998C18.2116 20.9455 18.0468 20.9298 17.2753 21.2971C16.9827 21.4364 16.5369 21.6464 16.2848 21.7637L15.8263 21.977V20.5467C15.8263 19.2098 15.8354 19.1196 15.9658 19.1654C16.0426 19.1924 16.3218 19.2661 16.5865 19.3293Z" fill="white"/>
</svg>
