<svg width="24" height="24" viewBox="0 0 24 24" fill="none" xmlns="http://www.w3.org/2000/svg">
<path d="M11.8551 17.0743C11.8551 17.0743 11.8582 17.0789 11.8637 17.0895C11.8692 17.0999 11.876 17.1143 11.884 17.1333C11.9001 17.1716 11.9182 17.2221 11.9372 17.2855C11.9753 17.4128 12.0123 17.5754 12.0445 17.7642C12.1088 18.1419 12.1493 18.5962 12.1493 19.0297V20.2083H7.04568C4.7696 20.2083 3.35024 20.1894 2.42883 20.1314C1.49092 20.0723 1.14801 19.9749 0.962696 19.8726L0.962553 19.8725L0.5 19.6173V10.4237C0.5 6.18253 0.514609 3.81396 0.588023 2.45261C0.624929 1.76824 0.675424 1.37126 0.735891 1.12934C0.790929 0.909135 0.842476 0.864359 0.864118 0.84556C0.864478 0.845247 0.86483 0.844941 0.865174 0.844642L0.865234 0.84459L0.866386 0.843586C0.966865 0.756029 1.10616 0.634645 2.42644 0.5712C3.72008 0.509034 6.01347 0.5 10.267 0.5C14.6554 0.5 16.9442 0.506193 18.2158 0.572253C18.8543 0.605423 19.2003 0.652434 19.4146 0.709183C19.6 0.758288 19.6843 0.813058 19.7997 0.903994C19.9233 1.00142 19.9808 1.06477 20.0239 1.14256C20.0711 1.22782 20.1216 1.36897 20.1613 1.64885C20.243 2.2255 20.2579 3.20994 20.2579 5.08888V8.59943L19.5105 8.52036L19.5105 8.52035C18.1497 8.37654 16.6694 8.67603 15.3621 9.26312C14.0564 9.84954 12.8783 10.7433 12.1514 11.8349C11.6885 12.5301 11.4381 13.5593 11.3774 14.5067C11.3466 14.9884 11.3632 15.4709 11.4348 15.9057C11.5051 16.333 11.6343 16.7509 11.8551 17.0743ZM11.8551 17.0743L12.2674 16.7932L11.8553 17.0747C11.8553 17.0745 11.8552 17.0744 11.8551 17.0743ZM11.3379 9.70347L11.338 9.70361C11.5219 9.87835 11.6351 10.1068 11.6837 10.3299C11.7317 10.5501 11.7265 10.8132 11.6102 11.0519L11.3379 9.70347ZM11.3379 9.70347C11.2409 9.61134 11.1263 9.55297 11.0345 9.5145C10.9366 9.4735 10.8284 9.44038 10.7179 9.4128C10.4969 9.35762 10.2291 9.31534 9.93929 9.28314C9.35745 9.21848 8.63958 9.18937 7.92901 9.19313C7.21842 9.19689 6.50024 9.2336 5.91776 9.3044C5.62761 9.33967 5.35955 9.38475 5.13832 9.44217C5.02773 9.47087 4.91958 9.505 4.82195 9.54674C4.73014 9.586 4.61684 9.64475 4.52081 9.73595L4.52072 9.73604C4.36549 9.88353 4.12357 10.1322 4.12357 10.482C4.12357 10.8318 4.36549 11.0804 4.52072 11.2279L4.5208 11.228M11.3379 9.70347L4.5208 11.228M4.5208 11.228C4.69877 11.3971 4.96458 11.4841 5.17361 11.5382M4.5208 11.228L5.17361 11.5382M15.0954 19.904V21.1936C15.0954 21.9825 15.1081 22.5479 15.1612 22.9478C15.2178 23.3745 15.3052 23.4682 15.3205 23.4803C15.3217 23.4812 15.3233 23.4824 15.3264 23.4838C15.3277 23.4844 15.3293 23.485 15.3313 23.4857C15.3388 23.4883 15.3553 23.4929 15.3851 23.4948C15.4492 23.499 15.5534 23.4902 15.7163 23.4491C16.0473 23.3655 16.5021 23.1812 17.148 22.8966C17.1481 22.8966 17.1481 22.8966 17.1481 22.8966L18.6864 22.2186L18.8834 22.1318L19.0819 22.2152L20.8456 22.9571C20.8456 22.9571 20.8457 22.9572 20.8457 22.9572C21.2801 23.1398 21.5964 23.2718 21.8392 23.3625C22.0884 23.4556 22.2212 23.4897 22.2979 23.4981C22.3161 23.5001 22.3273 23.5001 22.333 23.4999C22.3571 23.4851 22.399 23.4487 22.5195 23.3211M15.0954 19.904L22.5195 23.3211M15.0954 19.904L15.6932 20.1445L15.6932 20.1445C16.537 20.4838 17.6211 20.6594 18.6943 20.6843C19.7689 20.7092 20.8778 20.584 21.7751 20.2884C22.0869 20.1857 22.4005 20.0928 22.6526 20.026C22.7095 20.011 22.7624 19.9975 22.8109 19.9856C22.8156 20.014 22.8203 20.0452 22.8248 20.0794C22.866 20.3937 22.8769 20.8398 22.8561 21.3193C22.8354 21.7964 22.7843 22.2838 22.7096 22.6774C22.6722 22.8747 22.6307 23.0382 22.5884 23.1606C22.5535 23.2616 22.5273 23.3065 22.5203 23.3186C22.5181 23.3224 22.5177 23.323 22.5195 23.3211M15.0954 19.904L22.5195 23.3211M14.929 8.01352C14.8639 8.14684 14.7623 8.22497 14.7013 8.26487C14.6342 8.30882 14.5637 8.34013 14.5028 8.3631C14.3807 8.40921 14.2347 8.44479 14.0829 8.47394C13.7753 8.53304 13.368 8.57968 12.9053 8.61613C11.9757 8.68938 10.7687 8.72549 9.56808 8.72549C8.36742 8.72549 7.16051 8.68938 6.23087 8.61613C5.7682 8.57968 5.36086 8.53304 5.05322 8.47394C4.90143 8.44479 4.75549 8.40921 4.63335 8.3631C4.57251 8.34013 4.50199 8.30882 4.43482 8.26487C4.37384 8.22497 4.27225 8.14684 4.20722 8.01352C4.20715 8.01338 4.20708 8.01324 4.20702 8.01311L4.65658 7.79426L14.929 8.01352ZM14.929 8.01352C15.0513 7.76288 15.0359 7.48925 14.9769 7.27605M14.929 8.01352L14.9769 7.27605M14.9769 7.27605C14.9159 7.0554 14.792 6.83586 14.6119 6.6648L14.9769 7.27605ZM5.17361 11.5382C5.41092 11.5997 5.69791 11.6471 6.00794 11.6833M5.17361 11.5382L6.00794 11.6833M6.00794 11.6833C6.63012 11.756 7.39252 11.789 8.13743 11.7852M6.00794 11.6833L8.13743 11.7852M8.13743 11.7852C8.88162 11.7813 9.62569 11.7407 10.2102 11.6612M8.13743 11.7852L10.2102 11.6612M10.2102 11.6612C10.5001 11.6217 10.7686 11.5704 10.9838 11.5026M10.2102 11.6612L10.9838 11.5026M10.9838 11.5026C11.0907 11.4689 11.2017 11.4259 11.3008 11.3683M10.9838 11.5026L11.3008 11.3683M11.3008 11.3683C11.3903 11.3164 11.5283 11.2196 11.6099 11.0524L11.3008 11.3683ZM9.76347 5.55661L9.76349 5.55661C11.962 5.52312 13.1679 5.49884 13.8179 5.41788C14.1226 5.37992 14.4208 5.31977 14.6331 5.15414C14.9166 4.9329 14.9332 4.63109 14.9332 4.47402C14.9332 4.31593 14.9162 4.01184 14.6277 3.79095C14.414 3.62725 14.1132 3.56772 13.8023 3.52995C13.139 3.44935 11.9055 3.42531 9.64975 3.39194L9.64974 3.39194C7.58776 3.3615 6.35989 3.35694 5.62627 3.40644C5.26408 3.43088 4.97795 3.47061 4.75918 3.54645C4.51446 3.63127 4.31799 3.77471 4.20355 4.00953L4.20344 4.00975C4.09583 4.23082 3.951 4.63669 4.23334 5.00116C4.35433 5.15734 4.51874 5.25206 4.67335 5.31407C4.83024 5.377 5.0138 5.42079 5.216 5.4536C6.00364 5.58143 7.42542 5.59213 9.76347 5.55661ZM21.4233 12.8008L21.4233 12.8008L19.0972 13.6701L18.7199 13.342C18.7199 13.342 18.7199 13.342 18.7199 13.342C18.4174 13.6899 18.2336 13.8424 18.0711 13.9198C17.9216 13.991 17.7395 14.0225 17.3815 14.0018L17.3815 14.0018C17.169 13.9895 16.9771 13.9837 16.8131 13.9952C16.6546 14.0063 16.4682 14.0362 16.3004 14.1342C15.8931 14.3722 15.8793 14.8185 15.8793 15.0695C15.8793 15.8285 16.4715 16.2872 17.231 16.6371L17.2312 16.6371C17.8471 16.9206 18.4263 17.1511 19.0641 16.8594C19.3518 16.7278 19.6143 16.5065 19.8832 16.2302C20.1546 15.9513 20.4645 15.5821 20.8398 15.1211C21.2487 14.6188 21.5439 14.2236 21.6704 13.8923C21.7403 13.7091 21.777 13.5015 21.722 13.2836C21.6679 13.0691 21.542 12.9135 21.4233 12.8008ZM16.3793 15.0695C16.3793 14.5332 16.5171 14.4526 17.3526 14.5009L21.079 13.1633C21.4062 13.4742 21.2921 13.7736 20.452 14.8054C18.9487 16.6521 18.7035 16.7643 17.4402 16.1829C16.7004 15.8421 16.3793 15.5052 16.3793 15.0695ZM22.7569 19.7714C22.7568 19.771 22.7572 19.7717 22.7581 19.7737C22.7574 19.7724 22.757 19.7716 22.7569 19.7714ZM14.6118 6.66471C14.4899 6.54897 14.3322 6.48881 14.2279 6.4546C14.1058 6.41451 13.9629 6.3815 13.8105 6.35338C13.5043 6.29687 13.1134 6.25184 12.6746 6.21654C11.7943 6.14572 10.6783 6.11081 9.56808 6.11081C8.45787 6.11081 7.34191 6.14572 6.46154 6.21654C6.02273 6.25184 5.63188 6.29687 5.32565 6.35338C5.17323 6.3815 5.0304 6.41451 4.90822 6.4546C4.80399 6.48881 4.64627 6.54897 4.5244 6.66471H14.6118ZM18.9406 18.162C16.3787 18.1636 14.7937 16.8498 14.3497 15.4397C14.1271 14.7325 14.1794 13.9801 14.5433 13.2962C14.9079 12.6111 15.6048 11.9599 16.7293 11.504C18.3659 10.8405 20.0834 10.9574 21.3776 11.588C22.6701 12.2176 23.5012 13.3312 23.5 14.6738C23.499 15.7292 23.0687 16.5806 22.3084 17.1799C21.5369 17.7881 20.3913 18.1612 18.9406 18.162Z" stroke="white"/>
</svg>
