<svg width="40" height="40" viewBox="0 0 40 40" fill="none" xmlns="http://www.w3.org/2000/svg">
<path fill-rule="evenodd" clip-rule="evenodd" d="M13.9465 0.0764436C13.2111 0.1935 12.1993 0.639613 11.64 1.09346C10.7056 1.85167 10.2881 2.81728 10.2835 4.23048L10.2816 4.83608L7.36843 4.83764C4.09056 4.83936 3.36964 4.89711 2.4979 5.22757C1.71621 5.52388 0.787266 6.27108 0.429115 6.89145C-0.374535 8.28378 -0.0300584 9.89421 1.30047 10.9652C1.76022 11.3353 2.847 11.8689 3.14111 11.8689C3.21873 11.8689 3.25494 15.1629 3.27381 23.9223L3.29962 35.9757L3.56195 36.6008C3.9254 37.4666 4.4411 38.1361 5.17908 38.7C5.93573 39.2782 6.74092 39.6385 7.73881 39.8457C8.45926 39.9952 8.84563 40 20.0082 40C31.1708 40 31.5572 39.9952 32.2776 39.8457C34.6202 39.3595 36.3 37.7822 36.6667 35.7244C36.725 35.397 36.7619 30.7362 36.763 23.5377L36.765 11.881L37.1261 11.7853C38.5045 11.4202 39.7022 10.2283 39.9512 8.97385C40.2132 7.6538 39.4001 6.18137 38.0091 5.45715C36.9595 4.91062 36.7938 4.89031 33.0957 4.8546L29.7635 4.82248L29.703 3.9083C29.6358 2.89542 29.4383 2.30967 28.9601 1.70485C28.3158 0.890293 27.1514 0.249841 25.9895 0.0710518C25.3529 -0.0269383 14.5659 -0.0220935 13.9465 0.0764436ZM26.1255 2.03523C26.9886 2.41945 27.3331 2.95863 27.4005 4.03043L27.4512 4.83608H20.0114H12.5716L12.607 3.99605C12.6386 3.24979 12.672 3.11515 12.907 2.78993C13.0524 2.58863 13.3072 2.34545 13.473 2.24965C14.1328 1.86848 14.1052 1.86996 20.1527 1.8884C25.2357 1.90395 25.8652 1.91942 26.1255 2.03523ZM36.5242 6.9188C37.0151 7.13314 37.2922 7.37562 37.4938 7.76703C37.8647 8.48719 37.5593 9.35042 36.7755 9.79739L36.3632 10.0325L20.2166 10.0555C8.94414 10.0716 3.96238 10.0533 3.71324 9.99486C2.75407 9.76981 2.13917 8.87055 2.38224 8.04826C2.56502 7.43 3.17857 6.94263 3.97375 6.784C4.13265 6.75228 11.4348 6.7318 20.2008 6.73844L36.139 6.75056L36.5242 6.9188ZM34.4316 23.473C34.4494 31.31 34.4251 35.1336 34.3551 35.5068C34.1524 36.5874 33.4651 37.3856 32.3561 37.8287L31.7132 38.0855L20.2609 38.1066C7.83666 38.1295 8.16457 38.1396 7.32182 37.7079C6.53329 37.304 5.87978 36.5162 5.67099 35.7179C5.59366 35.4218 5.56275 31.9746 5.56275 23.6252V11.9465L19.9841 11.9663L34.4055 11.9861L34.4316 23.473ZM12.4209 14.7554C12.2652 14.8818 12.1101 15.0971 12.0764 15.234C12.0427 15.371 12.0151 19.4708 12.0151 24.3448C12.0151 33.7931 12.0015 33.5103 12.4713 33.8497C12.7621 34.0596 13.2789 34.1011 13.6802 33.9465C14.3683 33.6815 14.3263 34.3117 14.3263 24.2582C14.3263 14.4468 14.3534 14.9461 13.8049 14.6545C13.6715 14.5835 13.3699 14.5257 13.1333 14.5257C12.7866 14.5257 12.6495 14.5699 12.4209 14.7554ZM19.3191 14.7019C19.1785 14.7984 19.0159 14.9541 18.9579 15.048C18.8835 15.1686 18.8526 17.8688 18.8526 24.257C18.8526 34.3117 18.8106 33.6815 19.4987 33.9465C19.9 34.1011 20.4168 34.0596 20.7076 33.8497C21.1774 33.5103 21.1639 33.7931 21.1639 24.3448C21.1639 19.4708 21.1362 15.371 21.1025 15.234C21.0688 15.0971 20.9138 14.8818 20.758 14.7554C20.3889 14.4559 19.7143 14.4307 19.3191 14.7019ZM26.0175 14.7914L25.6901 15.0571V24.2114C25.6901 32.0726 25.7099 33.3968 25.8303 33.5857C25.9835 33.8261 26.4976 34.0612 26.8701 34.0612C27.2301 34.0612 27.7458 33.7392 27.8756 33.4333C28.0269 33.0768 28.0519 15.6532 27.9017 15.2144C27.7579 14.7943 27.3206 14.5257 26.7805 14.5257C26.4135 14.5257 26.2933 14.5676 26.0175 14.7914Z" fill="#DB2A40"/>
</svg>
