<svg width="24" height="24" viewBox="0 0 24 24" fill="none" xmlns="http://www.w3.org/2000/svg">
<path fill-rule="evenodd" clip-rule="evenodd" d="M8.46512 1.44186V2.88372H4.23256H0V10.6038V18.324L4.97246 18.348L9.94484 18.3721L7.25609 20.5116C5.7773 21.6884 4.56558 22.6721 4.56344 22.6977C4.5613 22.7233 4.74967 22.9833 4.98214 23.2754L5.40465 23.8067L8.30698 21.4837L11.2093 19.1607L11.2341 21.5804L11.2589 24H12H12.7411L12.7659 21.5811L12.7907 19.1622L15.694 21.4832L18.5974 23.8041L19.019 23.2741C19.2508 22.9827 19.4387 22.7233 19.4366 22.6977C19.4344 22.6721 18.2227 21.6884 16.7439 20.5116L14.0552 18.3721L19.0275 18.348L24 18.324V10.6038V2.88372H19.7674H15.5349V1.44186V0H12H8.46512V1.44186ZM14.1202 2.11628L14.093 2.83721H12H9.90698L9.87981 2.11628L9.85265 1.39535H12H14.1473L14.1202 2.11628ZM22.6047 10.6047V16.9302H12H1.39535V10.6047V4.27907H12H22.6047V10.6047ZM6.62995 5.80809C4.92819 6.22047 3.46791 7.65674 3.02614 9.35274C2.94781 9.65349 2.88419 10.2152 2.88484 10.6009C2.88688 11.9223 3.30446 12.9559 4.23414 13.9415C6.86326 16.7286 11.4165 15.6117 12.5028 11.9133C12.6715 11.3387 12.6965 10.0305 12.5508 9.39795C12.1664 7.73005 10.638 6.22223 8.92158 5.81767C8.21014 5.64995 7.29823 5.64614 6.62995 5.80809ZM14.1395 6.37209V7.06977H17.6279H21.1163V6.37209V5.67442H17.6279H14.1395V6.37209ZM7.09126 9.23256L7.11628 11.3023L9.13953 11.3274C11.4383 11.3559 11.3269 11.3045 10.9144 12.1469C10.619 12.7502 9.83712 13.5199 9.26056 13.775C7.49172 14.5574 5.4786 13.8343 4.63079 12.1122C4.3506 11.5432 4.32558 11.4195 4.32558 10.6066C4.32558 9.82744 4.35777 9.65135 4.59293 9.14214C5.02753 8.20121 6.1653 7.26874 6.99823 7.17079C7.03563 7.16642 7.07749 8.09414 7.09126 9.23256ZM9.27842 7.43767C9.96437 7.76223 10.5873 8.37005 10.9219 9.04149C11.3391 9.8787 11.3637 9.86047 9.81395 9.86047H8.46512V8.51163C8.46512 7.49451 8.49367 7.16279 8.5814 7.16288C8.6454 7.16288 8.95898 7.2866 9.27842 7.43767ZM14.1395 9.16279V9.86047H17.6279H21.1163V9.16279V8.46512H17.6279H14.1395V9.16279ZM14.1395 12V12.7442H17.6279H21.1163V12V11.2558H17.6279H14.1395V12ZM14.1395 14.8372V15.5349H17.6279H21.1163V14.8372V14.1395H17.6279H14.1395V14.8372Z" fill="white"/>
</svg>
