<svg width="94" height="94" viewBox="0 0 94 94" fill="none" xmlns="http://www.w3.org/2000/svg">
<path fill-rule="evenodd" clip-rule="evenodd" d="M33.155 5.64729V11.2946H16.5775H0V41.5316V71.769L19.4755 71.863L38.9506 71.9574L28.4197 80.3372C22.6278 84.9461 17.8819 88.799 17.8735 88.8992C17.8651 88.9994 18.6029 90.0178 19.5134 91.1621L21.1682 93.2429L32.5357 84.1446L43.9031 75.0462L44.0004 84.5231L44.0973 94H47H49.9027L49.9996 84.526L50.0969 75.0521L61.4683 84.1424L72.8398 93.2327L74.491 91.157C75.3989 90.0156 76.1349 88.9994 76.1265 88.8992C76.1181 88.799 71.3722 84.9461 65.5803 80.3372L55.0494 71.9574L74.5245 71.863L94 71.769V41.5316V11.2946H77.4225H60.845V5.64729V0H47H33.155V5.64729ZM55.3041 8.28876L55.1977 11.1124H47H38.8023L38.6959 8.28876L38.5895 5.46512H47H55.4104L55.3041 8.28876ZM88.5349 41.5349V66.3101H47H5.46512V41.5349V16.7597H47H88.5349V41.5349ZM25.9673 22.7484C19.3021 24.3635 13.5826 29.9889 11.8524 36.6316C11.5456 37.8095 11.2964 40.0094 11.2989 41.5203C11.307 46.6958 12.9425 50.744 16.5837 54.6042C26.8811 65.5202 44.7145 61.1459 48.9693 46.6604C49.6302 44.4099 49.7278 39.2862 49.1573 36.8087C47.6518 30.276 41.6657 24.3704 34.9429 22.7859C32.1564 22.129 28.5847 22.114 25.9673 22.7484ZM55.3798 24.9574V27.6899H69.0426H82.7054V24.9574V22.2248H69.0426H55.3798V24.9574ZM27.7741 36.1609L27.8721 44.2674L35.7965 44.3658C44.8001 44.4773 44.3636 44.2758 42.7481 47.5753C41.591 49.9384 38.5287 52.953 36.2705 53.952C29.3426 57.0165 21.4579 54.1844 18.1373 47.4394C17.0399 45.2107 16.9419 44.7265 16.9419 41.5425C16.9419 38.4908 17.0679 37.8011 17.989 35.8067C19.6912 32.1214 24.1474 28.4692 27.4097 28.0856C27.5562 28.0685 27.7202 31.702 27.7741 36.1609ZM36.3405 29.1309C39.0271 30.4021 41.4671 32.7827 42.7773 35.4125C44.4114 38.6916 44.5079 38.6202 38.438 38.6202H33.155V33.3372C33.155 29.3535 33.2669 28.0543 33.6105 28.0546C33.8611 28.0546 35.0893 28.5392 36.3405 29.1309ZM55.3798 35.8876V38.6202H69.0426H82.7054V35.8876V33.155H69.0426H55.3798V35.8876ZM55.3798 47V49.9147H69.0426H82.7054V47V44.0853H69.0426H55.3798V47ZM55.3798 58.1124V60.845H69.0426H82.7054V58.1124V55.3798H69.0426H55.3798V58.1124Z" fill="black"/>
</svg>
