<svg width="171" height="26" viewBox="0 0 171 26" fill="none" xmlns="http://www.w3.org/2000/svg">
<path d="M13.5 0L18.0889 7.82388L27 9.74014L20.925 16.4918L21.8435 25.5L13.5 21.8489L5.15654 25.5L6.075 16.4918L0 9.74014L8.9111 7.82388L13.5 0Z" fill="#FFCB45"/>
<path d="M49.5 0L54.0889 7.82388L63 9.74014L56.925 16.4918L57.8435 25.5L49.5 21.8489L41.1565 25.5L42.075 16.4918L36 9.74014L44.9111 7.82388L49.5 0Z" fill="#FFCB45"/>
<path d="M85.5 0L90.0889 7.82388L99 9.74014L92.925 16.4918L93.8435 25.5L85.5 21.8489L77.1565 25.5L78.075 16.4918L72 9.74014L80.9111 7.82388L85.5 0Z" fill="#FFCB45"/>
<path d="M121.5 0L126.089 7.82388L135 9.74014L128.925 16.4918L129.843 25.5L121.5 21.8489L113.157 25.5L114.075 16.4918L108 9.74014L116.911 7.82388L121.5 0Z" fill="#FFCB45"/>
<path d="M157.5 0L162.089 7.82388L171 9.74014L164.925 16.4918L165.843 25.5L157.5 21.8489L149.157 25.5L150.075 16.4918L144 9.74014L152.911 7.82388L157.5 0Z" fill="#F2F2F2"/>
<path d="M149.157 25.5L157.5 21.8489V0L152.911 7.82388L144 9.74013L150.075 16.4918L149.157 25.5Z" fill="#FFCB45"/>
</svg>
