<svg width="187" height="37" viewBox="0 0 187 37" fill="none" xmlns="http://www.w3.org/2000/svg">
<path d="M5.32 12.16C3.784 12.16 2.57867 11.728 1.704 10.864C0.84 10 0.408 8.752 0.408 7.12V0.799999H2.488V7.04C2.488 8.192 2.73333 9.02933 3.224 9.552C3.72533 10.0747 4.42933 10.336 5.336 10.336C6.24267 10.336 6.94133 10.0747 7.432 9.552C7.92267 9.02933 8.168 8.192 8.168 7.04V0.799999H10.216V7.12C10.216 8.752 9.77867 10 8.904 10.864C8.04 11.728 6.84533 12.16 5.32 12.16ZM13.129 12V0.799999H17.737C18.729 0.799999 19.577 0.959999 20.281 1.28C20.9957 1.6 21.545 2.05867 21.929 2.656C22.313 3.25333 22.505 3.96267 22.505 4.784C22.505 5.60533 22.313 6.31467 21.929 6.912C21.545 7.50933 20.9957 7.968 20.281 8.288C19.577 8.608 18.729 8.768 17.737 8.768H14.281L15.209 7.792V12H13.129ZM15.209 8.016L14.281 7.008H17.641C18.5583 7.008 19.2463 6.816 19.705 6.432C20.1743 6.03733 20.409 5.488 20.409 4.784C20.409 4.06933 20.1743 3.52 19.705 3.136C19.2463 2.752 18.5583 2.56 17.641 2.56H14.281L15.209 1.536V8.016ZM26.526 12V2.56H22.814V0.799999H32.318V2.56H28.606V12H26.526ZM38.3009 12V0.799999H42.9089C43.9009 0.799999 44.7489 0.959999 45.4529 1.28C46.1675 1.6 46.7169 2.05867 47.1009 2.656C47.4849 3.25333 47.6769 3.96267 47.6769 4.784C47.6769 5.60533 47.4849 6.31467 47.1009 6.912C46.7169 7.50933 46.1675 7.968 45.4529 8.288C44.7489 8.608 43.9009 8.768 42.9089 8.768H39.4529L40.3809 7.792V12H38.3009ZM40.3809 8.016L39.4529 7.008H42.8129C43.7302 7.008 44.4182 6.816 44.8769 6.432C45.3462 6.03733 45.5809 5.488 45.5809 4.784C45.5809 4.06933 45.3462 3.52 44.8769 3.136C44.4182 2.752 43.7302 2.56 42.8129 2.56H39.4529L40.3809 1.536V8.016ZM53.5468 12.112C52.5974 12.112 51.7654 11.9253 51.0508 11.552C50.3468 11.168 49.7974 10.6453 49.4028 9.984C49.0188 9.32267 48.8268 8.57067 48.8268 7.728C48.8268 6.87467 49.0134 6.12267 49.3868 5.472C49.7708 4.81067 50.2934 4.29333 50.9548 3.92C51.6268 3.54667 52.3894 3.36 53.2428 3.36C54.0748 3.36 54.8161 3.54133 55.4668 3.904C56.1174 4.26667 56.6294 4.77867 57.0028 5.44C57.3761 6.10133 57.5628 6.88 57.5628 7.776C57.5628 7.86133 57.5574 7.95733 57.5468 8.064C57.5468 8.17067 57.5414 8.272 57.5308 8.368H50.4108V7.04H56.4748L55.6908 7.456C55.7014 6.96533 55.6001 6.53333 55.3868 6.16C55.1734 5.78667 54.8801 5.49333 54.5068 5.28C54.1441 5.06667 53.7228 4.96 53.2428 4.96C52.7521 4.96 52.3201 5.06667 51.9468 5.28C51.5841 5.49333 51.2961 5.792 51.0828 6.176C50.8801 6.54933 50.7788 6.992 50.7788 7.504V7.824C50.7788 8.336 50.8961 8.78933 51.1308 9.184C51.3654 9.57867 51.6961 9.88267 52.1228 10.096C52.5494 10.3093 53.0401 10.416 53.5948 10.416C54.0748 10.416 54.5068 10.3413 54.8908 10.192C55.2748 10.0427 55.6161 9.808 55.9148 9.488L56.9868 10.72C56.6028 11.168 56.1174 11.5147 55.5308 11.76C54.9548 11.9947 54.2934 12.112 53.5468 12.112ZM59.4839 12V3.456H61.3879V5.808L61.1639 5.12C61.4199 4.544 61.8199 4.10667 62.3639 3.808C62.9185 3.50933 63.6065 3.36 64.4279 3.36V5.264C64.3425 5.24267 64.2625 5.232 64.1879 5.232C64.1132 5.22133 64.0385 5.216 63.9639 5.216C63.2065 5.216 62.6039 5.44 62.1559 5.888C61.7079 6.32533 61.4839 6.98133 61.4839 7.856V12H59.4839ZM70.8605 12.112C70.1672 12.112 69.5325 11.952 68.9565 11.632C68.3912 11.312 67.9378 10.832 67.5965 10.192C67.2658 9.54133 67.1005 8.72 67.1005 7.728C67.1005 6.72533 67.2605 5.904 67.5805 5.264C67.9112 4.624 68.3592 4.14933 68.9245 3.84C69.4898 3.52 70.1352 3.36 70.8605 3.36C71.7032 3.36 72.4445 3.54133 73.0845 3.904C73.7352 4.26667 74.2472 4.77333 74.6205 5.424C75.0045 6.07467 75.1965 6.84267 75.1965 7.728C75.1965 8.61333 75.0045 9.38667 74.6205 10.048C74.2472 10.6987 73.7352 11.2053 73.0845 11.568C72.4445 11.9307 71.7032 12.112 70.8605 12.112ZM66.1245 15.104V3.456H68.0285V5.472L67.9645 7.744L68.1245 10.016V15.104H66.1245ZM70.6365 10.4C71.1165 10.4 71.5432 10.2933 71.9165 10.08C72.3005 9.86667 72.6045 9.55733 72.8285 9.152C73.0525 8.74667 73.1645 8.272 73.1645 7.728C73.1645 7.17333 73.0525 6.69867 72.8285 6.304C72.6045 5.89867 72.3005 5.58933 71.9165 5.376C71.5432 5.16267 71.1165 5.056 70.6365 5.056C70.1565 5.056 69.7245 5.16267 69.3405 5.376C68.9565 5.58933 68.6525 5.89867 68.4285 6.304C68.2045 6.69867 68.0925 7.17333 68.0925 7.728C68.0925 8.272 68.2045 8.74667 68.4285 9.152C68.6525 9.55733 68.9565 9.86667 69.3405 10.08C69.7245 10.2933 70.1565 10.4 70.6365 10.4ZM80.7093 12.112C79.9839 12.112 79.3439 11.9787 78.7893 11.712C78.2346 11.4347 77.8026 11.0187 77.4933 10.464C77.1839 9.89867 77.0293 9.18933 77.0293 8.336V3.456H79.0293V8.064C79.0293 8.832 79.1999 9.408 79.5413 9.792C79.8933 10.1653 80.3893 10.352 81.0293 10.352C81.4986 10.352 81.9039 10.256 82.2453 10.064C82.5973 9.872 82.8693 9.584 83.0613 9.2C83.2639 8.816 83.3653 8.34133 83.3653 7.776V3.456H85.3653V12H83.4613V9.696L83.7973 10.4C83.5093 10.9547 83.0879 11.3813 82.5333 11.68C81.9786 11.968 81.3706 12.112 80.7093 12.112ZM90.6239 12.112C89.9092 12.112 89.2212 12.0213 88.5599 11.84C87.9092 11.648 87.3919 11.4187 87.0079 11.152L87.7759 9.632C88.1599 9.87733 88.6185 10.08 89.1519 10.24C89.6852 10.4 90.2185 10.48 90.7519 10.48C91.3812 10.48 91.8345 10.3947 92.1119 10.224C92.3999 10.0533 92.5439 9.824 92.5439 9.536C92.5439 9.30133 92.4479 9.12533 92.2559 9.008C92.0639 8.88 91.8132 8.784 91.5039 8.72C91.1945 8.656 90.8479 8.59733 90.4639 8.544C90.0905 8.49067 89.7119 8.42133 89.3279 8.336C88.9545 8.24 88.6132 8.10667 88.3039 7.936C87.9945 7.75467 87.7439 7.51467 87.5519 7.216C87.3599 6.91733 87.2639 6.52267 87.2639 6.032C87.2639 5.488 87.4185 5.01867 87.7279 4.624C88.0372 4.21867 88.4692 3.90933 89.0239 3.696C89.5892 3.472 90.2559 3.36 91.0239 3.36C91.5999 3.36 92.1812 3.424 92.7679 3.552C93.3545 3.68 93.8399 3.86133 94.2239 4.096L93.4559 5.616C93.0505 5.37067 92.6399 5.20533 92.2239 5.12C91.8185 5.024 91.4132 4.976 91.0079 4.976C90.3999 4.976 89.9465 5.06667 89.6479 5.248C89.3599 5.42933 89.2159 5.65867 89.2159 5.936C89.2159 6.192 89.3119 6.384 89.5039 6.512C89.6959 6.64 89.9465 6.74133 90.2559 6.816C90.5652 6.89067 90.9065 6.95467 91.2799 7.008C91.6639 7.05067 92.0425 7.12 92.4159 7.216C92.7892 7.312 93.1305 7.44533 93.4399 7.616C93.7599 7.776 94.0159 8.00533 94.2079 8.304C94.3999 8.60267 94.4959 8.992 94.4959 9.472C94.4959 10.0053 94.3359 10.4693 94.0159 10.864C93.7065 11.2587 93.2639 11.568 92.6879 11.792C92.1119 12.0053 91.4239 12.112 90.6239 12.112ZM99.4343 12.112C98.4956 12.112 97.7703 11.872 97.2582 11.392C96.7463 10.9013 96.4903 10.1813 96.4903 9.232V1.568H98.4903V9.184C98.4903 9.58933 98.5916 9.904 98.7943 10.128C99.0076 10.352 99.3009 10.464 99.6743 10.464C100.122 10.464 100.496 10.3467 100.794 10.112L101.354 11.536C101.12 11.728 100.832 11.872 100.49 11.968C100.149 12.064 99.7969 12.112 99.4343 12.112ZM95.0823 5.12V3.52H100.778V5.12H95.0823ZM108.264 12V10.272L108.152 9.904V6.88C108.152 6.29333 107.976 5.84 107.624 5.52C107.272 5.18933 106.738 5.024 106.024 5.024C105.544 5.024 105.069 5.09867 104.6 5.248C104.141 5.39733 103.752 5.60533 103.432 5.872L102.648 4.416C103.106 4.064 103.65 3.80267 104.28 3.632C104.92 3.45067 105.581 3.36 106.264 3.36C107.501 3.36 108.456 3.65867 109.128 4.256C109.81 4.84267 110.152 5.75467 110.152 6.992V12H108.264ZM105.576 12.112C104.936 12.112 104.376 12.0053 103.896 11.792C103.416 11.568 103.042 11.264 102.776 10.88C102.52 10.4853 102.392 10.0427 102.392 9.552C102.392 9.072 102.504 8.64 102.728 8.256C102.962 7.872 103.341 7.568 103.864 7.344C104.386 7.12 105.08 7.008 105.944 7.008H108.424V8.336H106.088C105.405 8.336 104.946 8.448 104.712 8.672C104.477 8.88533 104.36 9.152 104.36 9.472C104.36 9.83467 104.504 10.1227 104.792 10.336C105.08 10.5493 105.48 10.656 105.992 10.656C106.482 10.656 106.92 10.544 107.304 10.32C107.698 10.096 107.981 9.76533 108.152 9.328L108.488 10.528C108.296 11.0293 107.949 11.4187 107.448 11.696C106.957 11.9733 106.333 12.112 105.576 12.112ZM114.35 10.096L114.398 7.584L118.862 3.456H121.262L117.47 7.264L116.414 8.144L114.35 10.096ZM112.718 12V0.127999H114.718V12H112.718ZM119.166 12L116.046 8.144L117.31 6.544L121.598 12H119.166ZM127.998 12V10.272L127.886 9.904V6.88C127.886 6.29333 127.71 5.84 127.358 5.52C127.006 5.18933 126.473 5.024 125.758 5.024C125.278 5.024 124.803 5.09867 124.334 5.248C123.875 5.39733 123.486 5.60533 123.166 5.872L122.382 4.416C122.841 4.064 123.385 3.80267 124.014 3.632C124.654 3.45067 125.315 3.36 125.998 3.36C127.235 3.36 128.19 3.65867 128.862 4.256C129.545 4.84267 129.886 5.75467 129.886 6.992V12H127.998ZM125.31 12.112C124.67 12.112 124.11 12.0053 123.63 11.792C123.15 11.568 122.777 11.264 122.51 10.88C122.254 10.4853 122.126 10.0427 122.126 9.552C122.126 9.072 122.238 8.64 122.462 8.256C122.697 7.872 123.075 7.568 123.598 7.344C124.121 7.12 124.814 7.008 125.678 7.008H128.158V8.336H125.822C125.139 8.336 124.681 8.448 124.446 8.672C124.211 8.88533 124.094 9.152 124.094 9.472C124.094 9.83467 124.238 10.1227 124.526 10.336C124.814 10.5493 125.214 10.656 125.726 10.656C126.217 10.656 126.654 10.544 127.038 10.32C127.433 10.096 127.715 9.76533 127.886 9.328L128.222 10.528C128.03 11.0293 127.683 11.4187 127.182 11.696C126.691 11.9733 126.067 12.112 125.31 12.112ZM137.717 12V10.272L137.605 9.904V6.88C137.605 6.29333 137.429 5.84 137.077 5.52C136.725 5.18933 136.191 5.024 135.477 5.024C134.997 5.024 134.522 5.09867 134.053 5.248C133.594 5.39733 133.205 5.60533 132.885 5.872L132.101 4.416C132.559 4.064 133.103 3.80267 133.733 3.632C134.373 3.45067 135.034 3.36 135.717 3.36C136.954 3.36 137.909 3.65867 138.581 4.256C139.263 4.84267 139.605 5.75467 139.605 6.992V12H137.717ZM135.029 12.112C134.389 12.112 133.829 12.0053 133.349 11.792C132.869 11.568 132.495 11.264 132.229 10.88C131.973 10.4853 131.845 10.0427 131.845 9.552C131.845 9.072 131.957 8.64 132.181 8.256C132.415 7.872 132.794 7.568 133.317 7.344C133.839 7.12 134.533 7.008 135.397 7.008H137.877V8.336H135.541C134.858 8.336 134.399 8.448 134.165 8.672C133.93 8.88533 133.813 9.152 133.813 9.472C133.813 9.83467 133.957 10.1227 134.245 10.336C134.533 10.5493 134.933 10.656 135.445 10.656C135.935 10.656 136.373 10.544 136.757 10.32C137.151 10.096 137.434 9.76533 137.605 9.328L137.941 10.528C137.749 11.0293 137.402 11.4187 136.901 11.696C136.41 11.9733 135.786 12.112 135.029 12.112ZM147.019 3.36C147.702 3.36 148.31 3.49333 148.843 3.76C149.387 4.02667 149.814 4.43733 150.123 4.992C150.433 5.536 150.587 6.24 150.587 7.104V12H148.587V7.36C148.587 6.60267 148.406 6.03733 148.043 5.664C147.691 5.29067 147.195 5.104 146.555 5.104C146.086 5.104 145.67 5.2 145.307 5.392C144.945 5.584 144.662 5.872 144.459 6.256C144.267 6.62933 144.171 7.104 144.171 7.68V12H142.171V3.456H144.075V5.76L143.739 5.056C144.038 4.512 144.47 4.096 145.035 3.808C145.611 3.50933 146.273 3.36 147.019 3.36ZM161.162 12.112C160.341 12.112 159.6 11.9307 158.938 11.568C158.288 11.1947 157.776 10.6827 157.402 10.032C157.029 9.38133 156.842 8.61333 156.842 7.728C156.842 6.84267 157.029 6.07467 157.402 5.424C157.776 4.77333 158.288 4.26667 158.938 3.904C159.6 3.54133 160.341 3.36 161.162 3.36C161.877 3.36 162.517 3.52 163.082 3.84C163.648 4.14933 164.096 4.624 164.426 5.264C164.757 5.904 164.922 6.72533 164.922 7.728C164.922 8.72 164.762 9.54133 164.442 10.192C164.122 10.832 163.68 11.312 163.114 11.632C162.549 11.952 161.898 12.112 161.162 12.112ZM161.402 10.4C161.882 10.4 162.309 10.2933 162.682 10.08C163.066 9.86667 163.37 9.55733 163.594 9.152C163.829 8.74667 163.946 8.272 163.946 7.728C163.946 7.17333 163.829 6.69867 163.594 6.304C163.37 5.89867 163.066 5.58933 162.682 5.376C162.309 5.16267 161.882 5.056 161.402 5.056C160.922 5.056 160.49 5.16267 160.106 5.376C159.733 5.58933 159.429 5.89867 159.194 6.304C158.97 6.69867 158.858 7.17333 158.858 7.728C158.858 8.272 158.97 8.74667 159.194 9.152C159.429 9.55733 159.733 9.86667 160.106 10.08C160.49 10.2933 160.922 10.4 161.402 10.4ZM163.994 12V9.984L164.074 7.712L163.914 5.44V0.127999H165.898V12H163.994ZM173.795 12V10.272L173.683 9.904V6.88C173.683 6.29333 173.507 5.84 173.155 5.52C172.803 5.18933 172.269 5.024 171.555 5.024C171.075 5.024 170.6 5.09867 170.131 5.248C169.672 5.39733 169.283 5.60533 168.963 5.872L168.179 4.416C168.637 4.064 169.181 3.80267 169.811 3.632C170.451 3.45067 171.112 3.36 171.795 3.36C173.032 3.36 173.987 3.65867 174.659 4.256C175.341 4.84267 175.683 5.75467 175.683 6.992V12H173.795ZM171.107 12.112C170.467 12.112 169.907 12.0053 169.427 11.792C168.947 11.568 168.573 11.264 168.307 10.88C168.051 10.4853 167.923 10.0427 167.923 9.552C167.923 9.072 168.035 8.64 168.259 8.256C168.493 7.872 168.872 7.568 169.395 7.344C169.917 7.12 170.611 7.008 171.475 7.008H173.955V8.336H171.619C170.936 8.336 170.477 8.448 170.243 8.672C170.008 8.88533 169.891 9.152 169.891 9.472C169.891 9.83467 170.035 10.1227 170.323 10.336C170.611 10.5493 171.011 10.656 171.523 10.656C172.013 10.656 172.451 10.544 172.835 10.32C173.229 10.096 173.512 9.76533 173.683 9.328L174.019 10.528C173.827 11.0293 173.48 11.4187 172.979 11.696C172.488 11.9733 171.864 12.112 171.107 12.112ZM183.098 3.36C183.78 3.36 184.388 3.49333 184.922 3.76C185.466 4.02667 185.892 4.43733 186.202 4.992C186.511 5.536 186.666 6.24 186.666 7.104V12H184.666V7.36C184.666 6.60267 184.484 6.03733 184.122 5.664C183.77 5.29067 183.274 5.104 182.634 5.104C182.164 5.104 181.748 5.2 181.386 5.392C181.023 5.584 180.74 5.872 180.538 6.256C180.346 6.62933 180.25 7.104 180.25 7.68V12H178.25V3.456H180.154V5.76L179.818 5.056C180.116 4.512 180.548 4.096 181.114 3.808C181.69 3.50933 182.351 3.36 183.098 3.36ZM5.32 36.16C3.784 36.16 2.57867 35.728 1.704 34.864C0.84 34 0.408 32.752 0.408 31.12V24.8H2.488V31.04C2.488 32.192 2.73333 33.0293 3.224 33.552C3.72533 34.0747 4.42933 34.336 5.336 34.336C6.24267 34.336 6.94133 34.0747 7.432 33.552C7.92267 33.0293 8.168 32.192 8.168 31.04V24.8H10.216V31.12C10.216 32.752 9.77867 34 8.904 34.864C8.04 35.728 6.84533 36.16 5.32 36.16ZM13.129 36V24.8H14.841L21.865 33.424H21.017V24.8H23.081V36H21.369L14.345 27.376H15.193V36H13.129ZM26.0821 36V24.8H30.9781C32.1941 24.8 33.2608 25.0347 34.1781 25.504C35.0955 25.9733 35.8101 26.624 36.3221 27.456C36.8341 28.288 37.0901 29.2693 37.0901 30.4C37.0901 31.52 36.8341 32.5013 36.3221 33.344C35.8101 34.176 35.0955 34.8267 34.1781 35.296C33.2608 35.7653 32.1941 36 30.9781 36H26.0821ZM28.1621 34.24H30.8821C31.7248 34.24 32.4501 34.08 33.0581 33.76C33.6768 33.44 34.1515 32.992 34.4821 32.416C34.8235 31.84 34.9941 31.168 34.9941 30.4C34.9941 29.6213 34.8235 28.9493 34.4821 28.384C34.1515 27.808 33.6768 27.36 33.0581 27.04C32.4501 26.72 31.7248 26.56 30.8821 26.56H28.1621V34.24ZM39.3009 36V24.8H41.3809V36H39.3009ZM44.4103 36V24.8H49.0183C50.0103 24.8 50.8583 24.96 51.5623 25.28C52.2769 25.6 52.8263 26.0587 53.2103 26.656C53.5943 27.2533 53.7863 27.9627 53.7863 28.784C53.7863 29.6053 53.5943 30.3147 53.2103 30.912C52.8263 31.5093 52.2769 31.968 51.5623 32.288C50.8583 32.608 50.0103 32.768 49.0183 32.768H45.5623L46.4903 31.792V36H44.4103ZM46.4903 32.016L45.5623 31.008H48.9223C49.8396 31.008 50.5276 30.816 50.9862 30.432C51.4556 30.0373 51.6903 29.488 51.6903 28.784C51.6903 28.0693 51.4556 27.52 50.9862 27.136C50.5276 26.752 49.8396 26.56 48.9223 26.56H45.5623L46.4903 25.536V32.016ZM60.4415 36V24.8H65.0495C66.0415 24.8 66.8895 24.96 67.5935 25.28C68.3082 25.6 68.8575 26.0587 69.2415 26.656C69.6255 27.2533 69.8175 27.9627 69.8175 28.784C69.8175 29.6053 69.6255 30.3147 69.2415 30.912C68.8575 31.5093 68.3082 31.968 67.5935 32.288C66.8895 32.608 66.0415 32.768 65.0495 32.768H61.5935L62.5215 31.792V36H60.4415ZM62.5215 32.016L61.5935 31.008H64.9535C65.8708 31.008 66.5588 30.816 67.0175 30.432C67.4868 30.0373 67.7215 29.488 67.7215 28.784C67.7215 28.0693 67.4868 27.52 67.0175 27.136C66.5588 26.752 65.8708 26.56 64.9535 26.56H61.5935L62.5215 25.536V32.016ZM71.6245 36V27.456H73.5285V29.808L73.3045 29.12C73.5605 28.544 73.9605 28.1067 74.5045 27.808C75.0592 27.5093 75.7472 27.36 76.5685 27.36V29.264C76.4832 29.2427 76.4032 29.232 76.3285 29.232C76.2538 29.2213 76.1792 29.216 76.1045 29.216C75.3472 29.216 74.7445 29.44 74.2965 29.888C73.8485 30.3253 73.6245 30.9813 73.6245 31.856V36H71.6245ZM82.203 36.112C81.2537 36.112 80.4217 35.9253 79.707 35.552C79.003 35.168 78.4537 34.6453 78.059 33.984C77.675 33.3227 77.483 32.5707 77.483 31.728C77.483 30.8747 77.6697 30.1227 78.043 29.472C78.427 28.8107 78.9497 28.2933 79.611 27.92C80.283 27.5467 81.0457 27.36 81.899 27.36C82.731 27.36 83.4723 27.5413 84.123 27.904C84.7737 28.2667 85.2857 28.7787 85.659 29.44C86.0323 30.1013 86.219 30.88 86.219 31.776C86.219 31.8613 86.2137 31.9573 86.203 32.064C86.203 32.1707 86.1977 32.272 86.187 32.368H79.067V31.04H85.131L84.347 31.456C84.3577 30.9653 84.2563 30.5333 84.043 30.16C83.8297 29.7867 83.5363 29.4933 83.163 29.28C82.8003 29.0667 82.379 28.96 81.899 28.96C81.4083 28.96 80.9763 29.0667 80.603 29.28C80.2403 29.4933 79.9523 29.792 79.739 30.176C79.5363 30.5493 79.435 30.992 79.435 31.504V31.824C79.435 32.336 79.5523 32.7893 79.787 33.184C80.0217 33.5787 80.3523 33.8827 80.779 34.096C81.2057 34.3093 81.6963 34.416 82.251 34.416C82.731 34.416 83.163 34.3413 83.547 34.192C83.931 34.0427 84.2723 33.808 84.571 33.488L85.643 34.72C85.259 35.168 84.7737 35.5147 84.187 35.76C83.611 35.9947 82.9497 36.112 82.203 36.112ZM90.7801 36.112C90.0655 36.112 89.3775 36.0213 88.7161 35.84C88.0655 35.648 87.5481 35.4187 87.1641 35.152L87.9321 33.632C88.3161 33.8773 88.7748 34.08 89.3081 34.24C89.8415 34.4 90.3748 34.48 90.9081 34.48C91.5375 34.48 91.9908 34.3947 92.2681 34.224C92.5561 34.0533 92.7001 33.824 92.7001 33.536C92.7001 33.3013 92.6041 33.1253 92.4121 33.008C92.2201 32.88 91.9695 32.784 91.6601 32.72C91.3508 32.656 91.0041 32.5973 90.6201 32.544C90.2468 32.4907 89.8681 32.4213 89.4841 32.336C89.1108 32.24 88.7695 32.1067 88.4601 31.936C88.1508 31.7547 87.9001 31.5147 87.7081 31.216C87.5161 30.9173 87.4201 30.5227 87.4201 30.032C87.4201 29.488 87.5748 29.0187 87.8841 28.624C88.1935 28.2187 88.6255 27.9093 89.1801 27.696C89.7455 27.472 90.4121 27.36 91.1801 27.36C91.7561 27.36 92.3375 27.424 92.9241 27.552C93.5108 27.68 93.9961 27.8613 94.3801 28.096L93.6121 29.616C93.2068 29.3707 92.7961 29.2053 92.3801 29.12C91.9748 29.024 91.5695 28.976 91.1641 28.976C90.5561 28.976 90.1028 29.0667 89.8041 29.248C89.5161 29.4293 89.3721 29.6587 89.3721 29.936C89.3721 30.192 89.4681 30.384 89.6601 30.512C89.8521 30.64 90.1028 30.7413 90.4121 30.816C90.7215 30.8907 91.0628 30.9547 91.4361 31.008C91.8201 31.0507 92.1988 31.12 92.5721 31.216C92.9455 31.312 93.2868 31.4453 93.5961 31.616C93.9161 31.776 94.1721 32.0053 94.3641 32.304C94.5561 32.6027 94.6521 32.992 94.6521 33.472C94.6521 34.0053 94.4921 34.4693 94.1721 34.864C93.8628 35.2587 93.4201 35.568 92.8441 35.792C92.2681 36.0053 91.5801 36.112 90.7801 36.112ZM99.0145 36.112C98.2998 36.112 97.6118 36.0213 96.9505 35.84C96.2998 35.648 95.7825 35.4187 95.3985 35.152L96.1665 33.632C96.5505 33.8773 97.0092 34.08 97.5425 34.24C98.0758 34.4 98.6092 34.48 99.1425 34.48C99.7718 34.48 100.225 34.3947 100.503 34.224C100.791 34.0533 100.935 33.824 100.935 33.536C100.935 33.3013 100.839 33.1253 100.647 33.008C100.455 32.88 100.204 32.784 99.8945 32.72C99.5852 32.656 99.2385 32.5973 98.8545 32.544C98.4812 32.4907 98.1025 32.4213 97.7185 32.336C97.3452 32.24 97.0038 32.1067 96.6945 31.936C96.3852 31.7547 96.1345 31.5147 95.9425 31.216C95.7505 30.9173 95.6545 30.5227 95.6545 30.032C95.6545 29.488 95.8092 29.0187 96.1185 28.624C96.4278 28.2187 96.8598 27.9093 97.4145 27.696C97.9798 27.472 98.6465 27.36 99.4145 27.36C99.9905 27.36 100.572 27.424 101.159 27.552C101.745 27.68 102.231 27.8613 102.615 28.096L101.847 29.616C101.441 29.3707 101.031 29.2053 100.615 29.12C100.209 29.024 99.8038 28.976 99.3985 28.976C98.7905 28.976 98.3372 29.0667 98.0385 29.248C97.7505 29.4293 97.6065 29.6587 97.6065 29.936C97.6065 30.192 97.7025 30.384 97.8945 30.512C98.0865 30.64 98.3372 30.7413 98.6465 30.816C98.9558 30.8907 99.2972 30.9547 99.6705 31.008C100.055 31.0507 100.433 31.12 100.807 31.216C101.18 31.312 101.521 31.4453 101.831 31.616C102.151 31.776 102.407 32.0053 102.599 32.304C102.791 32.6027 102.887 32.992 102.887 33.472C102.887 34.0053 102.727 34.4693 102.407 34.864C102.097 35.2587 101.655 35.568 101.079 35.792C100.503 36.0053 99.8145 36.112 99.0145 36.112Z" fill="white"/>
</svg>
