<svg width="17" height="18" viewBox="0 0 17 18" fill="none" xmlns="http://www.w3.org/2000/svg">
<path d="M8.0591 10.4347C7.72329 10.4347 7.44482 10.1562 7.44482 9.82043V5.52052C7.44482 5.18472 7.72329 4.90625 8.0591 4.90625C8.3949 4.90625 8.67337 5.18472 8.67337 5.52052V9.82043C8.67337 10.1562 8.3949 10.4347 8.0591 10.4347Z" fill="#DB6B01"/>
<path d="M8.05908 13.3026C7.83794 13.3026 7.63319 13.2207 7.47757 13.0651C7.40386 12.9832 7.34652 12.8931 7.29738 12.7948C7.25643 12.6965 7.24005 12.5901 7.24005 12.4836C7.24005 12.2706 7.33014 12.0577 7.47757 11.9021C7.78061 11.599 8.33755 11.599 8.64059 11.9021C8.78802 12.0577 8.87811 12.2706 8.87811 12.4836C8.87811 12.5901 8.85354 12.6965 8.81259 12.7948C8.77164 12.8931 8.71431 12.9832 8.64059 13.0651C8.48498 13.2207 8.28022 13.3026 8.05908 13.3026Z" fill="#DB6B01"/>
<path d="M8.05929 17.8066C7.51054 17.8066 6.9536 17.6674 6.46218 17.3807L1.59712 14.5714C0.614281 13.9981 0 12.9415 0 11.8031V6.20094C0 5.06248 0.614281 4.00594 1.59712 3.43262L6.46218 0.62335C7.44502 0.0500291 8.66537 0.0500291 9.6564 0.62335L14.5214 3.43262C15.5043 4.00594 16.1185 5.06248 16.1185 6.20094V11.8031C16.1185 12.9415 15.5043 13.9981 14.5214 14.5714L9.6564 17.3807C9.16498 17.6674 8.60804 17.8066 8.05929 17.8066ZM8.05929 1.42598C7.72349 1.42598 7.37949 1.51608 7.07645 1.68807L2.21139 4.49735C1.60531 4.84953 1.22855 5.49657 1.22855 6.20094V11.8031C1.22855 12.4993 1.60531 13.1545 2.21139 13.5067L7.07645 16.316C7.68254 16.6681 8.43604 16.6681 9.03393 16.316L13.899 13.5067C14.5051 13.1545 14.8818 12.5075 14.8818 11.8031V6.20094C14.8818 5.50476 14.5051 4.84953 13.899 4.49735L9.03393 1.68807C8.73908 1.51608 8.39509 1.42598 8.05929 1.42598Z" fill="#DB6B01"/>
</svg>
